# xmcd
#
# Track frame offsets: 
#        150
#        21498
#        43043
#        58342
#        82846
#        112241
#        131456
#        149656
#        180561
#        197509
#
# Disc length: 2957 seconds
#
# Revision: 6
# Processed by: cddbd v1.5.2PL0 Copyright (c) Steve Scherf et al.
# Submitted via: ExactAudioCopy v0.99pb5
#
DISCID=920b8b0a
DTITLE=Jorn - Unlocking The Past
DYEAR=2007
DGENRE=Heavy Metal
TTITLE0=On And On
TTITLE1=Fool For Your Loving
TTITLE2=Cold Sweat
TTITLE3=Lonely Is The Word/Letters From Earth
TTITLE4=Burn
TTITLE5=Feel Like Making Love
TTITLE6=Kill The King
TTITLE7=Perfect Strangers
TTITLE8=Naked City
TTITLE9=The Day The Earth Caught Fire
EXTD=YEAR: 2007
EXTT0=
EXTT1=
EXTT2=
EXTT3=
EXTT4=
EXTT5=
EXTT6=
EXTT7=
EXTT8=
EXTT9=
PLAYORDER=
